<?xml version="1.0" encoding="utf-8"?>
<!-- Generator: Adobe Illustrator 16.0.0, SVG Export Plug-In . SVG Version: 6.00 Build 0)  -->
<!DOCTYPE svg PUBLIC "-//W3C//DTD SVG 1.1//EN" "http://www.w3.org/Graphics/SVG/1.1/DTD/svg11.dtd">
<svg version="1.1" xmlns="http://www.w3.org/2000/svg" xmlns:xlink="http://www.w3.org/1999/xlink" x="0px" y="0px"
	 width="231.125px" height="44px" viewBox="-38.125 0 231.125 44" enable-background="new -38.125 0 231.125 44"
	 xml:space="preserve">
<g id="레이어_1">
	<title>logo</title>
	<desc>Created with Sketch.</desc>
	<g>
		<path fill="#45454A" d="M-31.892,38.424c-0.171,0-0.32-0.096-0.448-0.289c-2.006-2.475-3.461-4.975-4.368-7.504
			c-0.907-2.527-1.36-5.146-1.36-7.855c0-2.688,0.453-5.296,1.36-7.824c0.907-2.528,2.362-5.04,4.368-7.536
			c0.128-0.192,0.277-0.288,0.448-0.288h2.368c0.277,0,0.341,0.118,0.192,0.352c-1.707,2.688-2.965,5.286-3.776,7.792
			c-0.811,2.507-1.216,5.008-1.216,7.504c0,2.518,0.4,5.023,1.2,7.52s2.064,5.088,3.792,7.776c0.064,0.085,0.085,0.165,0.064,0.24
			c-0.021,0.074-0.107,0.112-0.256,0.112H-31.892z"/>
		<path fill="#45454A" d="M0.364,26.359c-0.107,0.107-0.213,0.16-0.32,0.16h-12.064v10.304c0,0.299-0.149,0.448-0.448,0.448h-2.784
			c-0.299,0-0.448-0.149-0.448-0.448V26.52h-12.128c-0.128,0-0.235-0.053-0.32-0.16c-0.085-0.106-0.128-0.213-0.128-0.32v-2.08
			c0-0.127,0.042-0.24,0.128-0.336c0.085-0.096,0.192-0.144,0.32-0.144H0.044c0.106,0,0.213,0.054,0.32,0.16
			c0.106,0.106,0.16,0.214,0.16,0.319v2.08C0.524,26.146,0.47,26.253,0.364,26.359z M-24.148,20.664
			c-0.192,0.043-0.363,0.021-0.512-0.064c-0.149-0.085-0.246-0.192-0.288-0.32l-0.736-1.92c-0.043-0.128-0.011-0.267,0.096-0.416
			c0.106-0.149,0.213-0.245,0.32-0.288c1.493-0.362,2.954-0.773,4.384-1.232c1.429-0.458,2.763-0.949,4-1.472
			c1.237-0.523,2.352-1.067,3.344-1.632c0.992-0.565,1.818-1.136,2.48-1.712c0.234-0.192,0.362-0.347,0.384-0.464
			c0.021-0.117-0.149-0.176-0.512-0.176H-22.9c-0.277,0-0.416-0.138-0.416-0.416V8.375c0-0.256,0.139-0.384,0.416-0.384h15.04
			c0.832,0,1.499,0.134,2,0.4c0.501,0.267,0.752,0.613,0.752,1.04c0,0.341-0.102,0.699-0.304,1.072
			c-0.203,0.374-0.39,0.678-0.56,0.912c-0.981,1.28-2.326,2.464-4.032,3.552c0.576,0.214,1.189,0.432,1.84,0.656
			c0.65,0.224,1.312,0.443,1.984,0.656c0.672,0.214,1.338,0.406,2,0.576c0.661,0.171,1.28,0.31,1.856,0.416
			c0.149,0.043,0.267,0.123,0.352,0.24c0.085,0.118,0.096,0.262,0.032,0.432l-0.768,1.92c-0.149,0.342-0.384,0.48-0.704,0.416
			c-0.64-0.128-1.36-0.309-2.16-0.544c-0.8-0.234-1.632-0.506-2.496-0.816c-0.864-0.309-1.739-0.645-2.624-1.008
			s-1.733-0.725-2.544-1.088c-1.686,0.832-3.472,1.574-5.36,2.224C-20.484,19.698-22.335,20.237-24.148,20.664z"/>
		<path fill="#45454A" d="M4.812,38.135c-0.128,0.193-0.278,0.289-0.448,0.289H1.995c-0.149,0-0.235-0.038-0.256-0.112
			c-0.021-0.075,0-0.155,0.064-0.24c1.728-2.688,2.992-5.28,3.792-7.776c0.8-2.496,1.2-5.002,1.2-7.52
			c0-2.496-0.406-4.997-1.216-7.504c-0.811-2.506-2.069-5.104-3.776-7.792C1.654,7.245,1.718,7.127,1.995,7.127h2.368
			c0.17,0,0.32,0.096,0.448,0.288c2.005,2.496,3.461,5.008,4.368,7.536c0.907,2.528,1.36,5.136,1.36,7.824
			c0,2.709-0.454,5.328-1.36,7.855C8.272,33.16,6.816,35.66,4.812,38.135z"/>
		<path fill="#45454A" d="M32.059,14.775c-0.096,0.107-0.208,0.16-0.336,0.16H14.955c-0.107,0-0.213-0.059-0.32-0.176
			c-0.107-0.117-0.16-0.24-0.16-0.368v-1.824c0-0.106,0.059-0.213,0.176-0.32c0.117-0.106,0.229-0.16,0.336-0.16h16.736
			c0.128,0,0.24,0.048,0.336,0.144s0.144,0.208,0.144,0.336v1.856C32.203,14.551,32.155,14.669,32.059,14.775z M26.315,16.664
			c0.853,0.299,1.584,0.709,2.192,1.232c0.608,0.523,1.088,1.136,1.44,1.84c0.352,0.704,0.528,1.451,0.528,2.24
			c0,0.812-0.176,1.563-0.528,2.256c-0.352,0.693-0.838,1.296-1.456,1.808c-0.619,0.512-1.35,0.918-2.192,1.217
			s-1.765,0.447-2.768,0.447c-0.982,0-1.894-0.148-2.736-0.447s-1.568-0.705-2.176-1.217s-1.088-1.114-1.44-1.808
			c-0.352-0.692-0.528-1.444-0.528-2.256c0-0.789,0.176-1.536,0.528-2.24s0.832-1.317,1.44-1.84
			c0.608-0.522,1.333-0.933,2.176-1.232s1.765-0.448,2.768-0.448C24.544,16.215,25.461,16.365,26.315,16.664z M27.931,10.423
			c-0.096,0.107-0.219,0.16-0.368,0.16h-8.16c-0.085,0-0.187-0.042-0.304-0.128c-0.118-0.085-0.176-0.203-0.176-0.352V8.279
			c0-0.17,0.059-0.298,0.176-0.384c0.117-0.085,0.218-0.128,0.304-0.128h8.16c0.128,0,0.245,0.053,0.352,0.16
			c0.106,0.107,0.16,0.235,0.16,0.384v1.76C28.075,10.199,28.027,10.317,27.931,10.423z M22.171,19.271
			c-0.416,0.16-0.779,0.379-1.088,0.656c-0.31,0.278-0.544,0.592-0.704,0.944c-0.16,0.352-0.24,0.72-0.24,1.104
			c0,0.384,0.08,0.757,0.24,1.12c0.16,0.363,0.395,0.683,0.704,0.96c0.309,0.277,0.672,0.495,1.088,0.655s0.88,0.24,1.392,0.24
			c0.512,0,0.976-0.08,1.392-0.24s0.778-0.378,1.088-0.655c0.309-0.277,0.544-0.597,0.704-0.96s0.24-0.736,0.24-1.12
			c0-0.384-0.08-0.752-0.24-1.104s-0.395-0.667-0.704-0.944c-0.31-0.277-0.672-0.496-1.088-0.656s-0.88-0.24-1.392-0.24
			C23.051,19.031,22.587,19.111,22.171,19.271z M39.787,37.016H22.923c-0.96,0-1.605-0.172-1.936-0.512
			c-0.331-0.342-0.496-0.928-0.496-1.76v-5.089c0-0.106,0.048-0.213,0.144-0.319c0.096-0.107,0.197-0.16,0.304-0.16h2.752
			c0.128,0,0.24,0.053,0.336,0.16c0.096,0.106,0.144,0.213,0.144,0.319v3.776c0,0.213,0.042,0.352,0.128,0.416
			s0.235,0.096,0.448,0.096h14.976c0.106,0,0.208,0.043,0.304,0.128c0.096,0.085,0.144,0.181,0.144,0.288v2.271
			C40.171,36.888,40.043,37.016,39.787,37.016z M31.275,19.127v-2.144c0-0.106,0.053-0.197,0.16-0.272
			c0.106-0.075,0.213-0.112,0.32-0.112h3.776V7.511c0-0.277,0.138-0.416,0.416-0.416h2.848c0.277,0,0.416,0.139,0.416,0.416v22.432
			c0,0.277-0.139,0.416-0.416,0.416h-2.848c-0.278,0-0.416-0.139-0.416-0.416v-4.96h-3.776c-0.107,0-0.213-0.037-0.32-0.112
			c-0.107-0.074-0.16-0.164-0.16-0.271v-2.176c0-0.106,0.053-0.197,0.16-0.272c0.106-0.074,0.213-0.112,0.32-0.112h3.776v-2.528
			h-3.776c-0.107,0-0.213-0.037-0.32-0.112C31.328,19.325,31.275,19.234,31.275,19.127z"/>
		<path fill="#45454A" d="M59.146,27.799c-0.128,0.086-0.245,0.15-0.352,0.192c-0.704,0.192-1.542,0.358-2.512,0.496
			c-0.971,0.14-1.984,0.251-3.04,0.336c-1.056,0.086-2.107,0.144-3.152,0.177c-1.046,0.031-1.974,0.016-2.784-0.049
			c-0.768-0.042-1.35-0.224-1.744-0.544c-0.395-0.319-0.592-0.853-0.592-1.6V11.671c0-0.747,0.154-1.269,0.464-1.568
			c0.309-0.298,0.869-0.448,1.68-0.448h9.28c0.299,0,0.448,0.15,0.448,0.448v2.208c0,0.277-0.149,0.416-0.448,0.416h-7.136
			c-0.406,0-0.608,0.182-0.608,0.544v11.68c0,0.342,0.059,0.561,0.176,0.656c0.117,0.096,0.378,0.166,0.784,0.208
			c0.448,0.063,1.034,0.085,1.76,0.063c0.725-0.021,1.499-0.068,2.32-0.144c0.821-0.074,1.632-0.165,2.432-0.272
			c0.8-0.105,1.499-0.224,2.096-0.352c0.148-0.043,0.288-0.043,0.416,0s0.213,0.149,0.256,0.32l0.384,1.951
			C59.317,27.576,59.274,27.715,59.146,27.799z M67.019,7.543c0-0.277,0.149-0.416,0.448-0.416h2.752
			c0.277,0,0.416,0.139,0.416,0.416V37.08c0,0.276-0.139,0.416-0.416,0.416h-2.784c-0.277,0-0.416-0.14-0.416-0.416V21.943h-2.976
			v13.92c0,0.299-0.14,0.448-0.416,0.448h-2.624c-0.299,0-0.448-0.149-0.448-0.448V8.12c0-0.277,0.149-0.416,0.448-0.416h2.624
			c0.276,0,0.416,0.139,0.416,0.416v10.752h2.976V7.543z"/>
		<path fill="#45454A" d="M102.219,32.151c-0.107,0.106-0.214,0.16-0.32,0.16H74.026c-0.128,0-0.234-0.054-0.319-0.16
			c-0.086-0.106-0.128-0.213-0.128-0.319v-2.08c0-0.129,0.042-0.246,0.128-0.353c0.085-0.106,0.191-0.16,0.319-0.16h12.097v-5.856
			h-5.856c-0.938,0-1.579-0.159-1.92-0.479c-0.342-0.319-0.512-0.917-0.512-1.792V8.888c0-0.107,0.042-0.197,0.128-0.272
			c0.085-0.074,0.181-0.112,0.288-0.112h2.815c0.106,0,0.208,0.038,0.305,0.112c0.096,0.075,0.144,0.166,0.144,0.272v4.512h12.864
			V8.855c0-0.106,0.042-0.203,0.128-0.288c0.085-0.085,0.181-0.128,0.288-0.128h2.848c0.106,0,0.202,0.043,0.288,0.128
			c0.085,0.085,0.128,0.182,0.128,0.288v12.384c0,0.704-0.171,1.238-0.512,1.601c-0.342,0.363-0.971,0.543-1.888,0.543h-5.856v5.856
			h12.096c0.106,0,0.213,0.06,0.32,0.177c0.106,0.117,0.16,0.229,0.16,0.336v2.08C102.379,31.938,102.325,32.045,102.219,32.151z
			 M94.379,16.375H81.515v3.456c0,0.363,0.192,0.544,0.576,0.544h11.712c0.384,0,0.576-0.181,0.576-0.544V16.375z"/>
		<path fill="#45454A" d="M122.89,22.535c-0.085,0.096-0.182,0.155-0.288,0.176c-1.003,0.192-2.102,0.363-3.296,0.513
			c-1.195,0.149-2.421,0.267-3.68,0.353c-1.259,0.085-2.523,0.143-3.792,0.176c-1.27,0.031-2.47,0.026-3.601-0.017
			c-0.832-0.042-1.397-0.213-1.695-0.512c-0.299-0.299-0.448-0.789-0.448-1.472v-5.344c0-0.661,0.144-1.13,0.432-1.408
			c0.288-0.277,0.773-0.416,1.456-0.416h7.393c0.234,0,0.373-0.021,0.416-0.064c0.042-0.042,0.063-0.181,0.063-0.416v-2.432
			c0-0.234-0.021-0.373-0.063-0.416c-0.043-0.042-0.182-0.064-0.416-0.064h-8.704c-0.107,0-0.208-0.042-0.305-0.128
			c-0.096-0.085-0.144-0.181-0.144-0.288v-2.08c0-0.106,0.048-0.197,0.144-0.272c0.097-0.074,0.197-0.112,0.305-0.112h10.688
			c0.832,0,1.397,0.166,1.696,0.496c0.299,0.331,0.448,0.869,0.448,1.616v4.8c0,0.79-0.166,1.333-0.496,1.632
			c-0.331,0.299-0.838,0.448-1.521,0.448h-7.296c-0.171,0-0.288,0.027-0.352,0.08c-0.064,0.054-0.096,0.176-0.096,0.368v2.528
			c0,0.363,0.191,0.544,0.575,0.544c1.941,0.043,3.957-0.005,6.048-0.144s4.011-0.357,5.761-0.656
			c0.106-0.021,0.218-0.016,0.336,0.016c0.117,0.032,0.187,0.112,0.208,0.24l0.319,1.952
			C123.007,22.338,122.975,22.439,122.89,22.535z M127.578,36.439c-0.353,0.341-0.934,0.512-1.744,0.512h-14.112
			c-0.96,0-1.605-0.171-1.936-0.512c-0.331-0.342-0.496-0.928-0.496-1.76v-5.729c0-0.811,0.176-1.392,0.527-1.744
			c0.353-0.352,0.934-0.527,1.744-0.527h14.112c0.96,0,1.604,0.171,1.936,0.512c0.331,0.342,0.496,0.939,0.496,1.792v5.728
			C128.105,35.521,127.93,36.098,127.578,36.439z M124.458,30.039c0-0.17-0.027-0.282-0.08-0.336
			c-0.054-0.053-0.166-0.08-0.336-0.08h-10.688c-0.171,0-0.282,0.021-0.336,0.064s-0.08,0.149-0.08,0.32v3.584
			c0,0.191,0.026,0.309,0.08,0.352s0.165,0.064,0.336,0.064h10.688c0.17,0,0.282-0.021,0.336-0.064
			c0.053-0.043,0.08-0.16,0.08-0.352V30.039z M132.729,17.784c-0.096,0.085-0.197,0.128-0.304,0.128h-4.352v6.752
			c0,0.277-0.14,0.416-0.416,0.416h-2.849c-0.277,0-0.416-0.149-0.416-0.449V7.543c0-0.277,0.139-0.416,0.416-0.416h2.849
			c0.276,0,0.416,0.139,0.416,0.416v7.328h4.352c0.106,0,0.208,0.038,0.304,0.112c0.097,0.075,0.145,0.166,0.145,0.272v2.24
			C132.874,17.603,132.826,17.698,132.729,17.784z"/>
		<path fill="#45454A" d="M136.617,24.344c-0.277,0.171-0.491,0.234-0.641,0.191c-0.149-0.042-0.288-0.139-0.416-0.287l-1.312-1.504
			c-0.214-0.235-0.294-0.427-0.24-0.577c0.053-0.149,0.176-0.288,0.368-0.416c1.194-0.811,2.24-1.648,3.136-2.512
			c0.896-0.864,1.638-1.818,2.225-2.864c0.586-1.045,1.028-2.224,1.327-3.536s0.448-2.821,0.448-4.528
			c0-0.149,0.053-0.277,0.16-0.384c0.106-0.106,0.213-0.16,0.32-0.16l2.815,0.128c0.277,0,0.416,0.16,0.416,0.48
			c0,1.877-0.16,3.531-0.479,4.96c0.341,0.811,0.784,1.579,1.328,2.304s1.13,1.392,1.76,2c0.629,0.608,1.269,1.141,1.92,1.6
			c0.65,0.459,1.264,0.816,1.84,1.072c0.362,0.149,0.427,0.405,0.192,0.768l-1.12,1.76c-0.192,0.363-0.48,0.447-0.864,0.256
			c-1.302-0.576-2.512-1.36-3.632-2.352c-1.12-0.992-2.075-2.096-2.864-3.312c-0.726,1.365-1.643,2.603-2.752,3.712
			C139.443,22.253,138.132,23.319,136.617,24.344z M158.505,31.416c0,0.896-0.24,1.723-0.72,2.479
			c-0.48,0.757-1.152,1.407-2.017,1.952c-0.863,0.544-1.883,0.965-3.056,1.264c-1.174,0.299-2.453,0.448-3.84,0.448
			c-1.451,0-2.763-0.149-3.937-0.448c-1.173-0.299-2.176-0.72-3.008-1.264c-0.832-0.545-1.472-1.189-1.92-1.936
			c-0.448-0.748-0.672-1.579-0.672-2.496c0-0.896,0.224-1.718,0.672-2.465c0.448-0.746,1.088-1.392,1.92-1.936
			s1.835-0.965,3.008-1.264c1.174-0.299,2.485-0.449,3.937-0.449c1.387,0,2.666,0.15,3.84,0.449
			c1.173,0.299,2.192,0.715,3.056,1.248c0.864,0.533,1.536,1.173,2.017,1.92C158.265,29.666,158.505,30.498,158.505,31.416z
			 M154.729,31.512c0-0.533-0.159-1.003-0.479-1.408s-0.747-0.746-1.28-1.023s-1.151-0.491-1.855-0.641
			c-0.704-0.148-1.451-0.225-2.24-0.225c-1.707,0-3.088,0.283-4.145,0.849c-1.056,0.565-1.584,1.382-1.584,2.448
			c0,0.512,0.145,0.96,0.433,1.344s0.683,0.709,1.184,0.977c0.501,0.266,1.104,0.469,1.809,0.607
			c0.703,0.139,1.472,0.208,2.304,0.208c0.789,0,1.536-0.069,2.24-0.208s1.322-0.342,1.855-0.607c0.533-0.268,0.96-0.593,1.28-0.977
			S154.729,32.023,154.729,31.512z M162.841,17.943c-0.096,0.085-0.197,0.128-0.304,0.128h-4.353v6.4
			c0,0.106-0.043,0.208-0.128,0.304s-0.182,0.145-0.288,0.145h-2.848c-0.107,0-0.203-0.049-0.288-0.145s-0.128-0.208-0.128-0.336
			V7.543c0-0.277,0.139-0.416,0.416-0.416h2.848c0.277,0,0.416,0.139,0.416,0.416v7.488h4.353c0.106,0,0.208,0.038,0.304,0.112
			s0.145,0.166,0.145,0.272v2.24C162.985,17.763,162.937,17.858,162.841,17.943z"/>
		<path fill="#45454A" d="M166.857,30.424c-0.406,0.32-0.779,0.309-1.12-0.032l-1.504-1.408c-0.3-0.298-0.268-0.629,0.096-0.992
			c1.387-1.259,2.57-2.655,3.552-4.192c0.981-1.535,1.771-3.178,2.368-4.927c0.256-0.768,0.475-1.531,0.656-2.288
			c0.181-0.757,0.325-1.525,0.432-2.304c0.106-0.778,0.181-1.589,0.224-2.432s0.054-1.733,0.032-2.672
			c0-0.128,0.048-0.24,0.145-0.336c0.096-0.096,0.196-0.144,0.304-0.144l2.848,0.096c0.106,0,0.203,0.048,0.288,0.144
			c0.085,0.096,0.128,0.208,0.128,0.336c0,1.301-0.043,2.512-0.128,3.632c-0.085,1.12-0.224,2.203-0.416,3.248
			c0.213,1.003,0.544,2.005,0.992,3.008s0.971,1.968,1.568,2.896c0.597,0.928,1.242,1.781,1.936,2.56
			c0.693,0.779,1.381,1.445,2.064,2c0.341,0.256,0.362,0.588,0.063,0.992l-1.344,1.632c-0.107,0.149-0.251,0.235-0.432,0.257
			c-0.182,0.021-0.379-0.043-0.593-0.193c-0.512-0.404-1.056-0.906-1.632-1.504c-0.576-0.596-1.125-1.242-1.647-1.936
			c-0.523-0.693-1.009-1.408-1.456-2.145c-0.448-0.735-0.812-1.444-1.088-2.127c-0.385,0.896-0.822,1.771-1.313,2.624
			c-0.491,0.854-1.014,1.66-1.568,2.416c-0.555,0.758-1.125,1.462-1.712,2.113C168.014,29.395,167.433,29.955,166.857,30.424z
			 M192.921,21.751c-0.096,0.085-0.197,0.128-0.304,0.128h-4.353V37.08c0,0.276-0.139,0.416-0.416,0.416h-2.848
			c-0.277,0-0.416-0.14-0.416-0.416V7.543c0-0.277,0.139-0.416,0.416-0.416h2.848c0.277,0,0.416,0.139,0.416,0.416v11.264h4.353
			c0.106,0,0.208,0.037,0.304,0.112c0.096,0.075,0.145,0.166,0.145,0.272v2.24C193.065,21.56,193.017,21.667,192.921,21.751z"/>
	</g>
</g>
<g id="레이어_2">
</g>
</svg>
