<?xml version="1.0" encoding="utf-8"?>
<!-- Generator: Adobe Illustrator 16.0.0, SVG Export Plug-In . SVG Version: 6.00 Build 0)  -->
<!DOCTYPE svg PUBLIC "-//W3C//DTD SVG 1.1//EN" "http://www.w3.org/Graphics/SVG/1.1/DTD/svg11.dtd">
<svg version="1.1" id="레이어_1" xmlns="http://www.w3.org/2000/svg" xmlns:xlink="http://www.w3.org/1999/xlink" x="0px"
	 y="0px" width="54px" height="54px" viewBox="0 0 54 54" enable-background="new 0 0 54 54" xml:space="preserve">
<title>logo-mobile</title>
<desc>Created with Sketch.</desc>
<g id="Page-1">
	<g id="logo-mobile">
		<rect id="Rectangle-6" x="2" y="2" fill="none" stroke="#1C3ED3" stroke-width="4" width="50" height="50"/>
		<path id="_x2E_" fill="#1C3ED3" d="M34.402,41.895c-0.477-0.518-0.715-1.154-0.715-1.91s0.246-1.4,0.735-1.932
			c0.49-0.533,1.071-0.799,1.743-0.799c0.7,0,1.281,0.266,1.743,0.799c0.462,0.531,0.692,1.176,0.692,1.932s-0.244,1.393-0.734,1.91
			c-0.49,0.519-1.071,0.777-1.743,0.777S34.878,42.413,34.402,41.895z"/>
	</g>
</g>
<g>
	<path fill="#1C3ED3" d="M23.576,26.572c1.409,0.211,2.61,0.539,3.602,0.983c0.993,0.443,1.804,0.989,2.431,1.637
		c0.626,0.648,1.08,1.381,1.362,2.197c0.281,0.817,0.423,1.698,0.423,2.642c0,1.099-0.197,2.165-0.592,3.201
		c-0.395,1.035-1.063,1.954-2.007,2.757c-0.944,0.803-2.19,1.447-3.74,1.934c-1.549,0.485-3.486,0.729-5.81,0.729H6.04v-1.69h4.226
		V13.641H6.04v-1.69h12.677c2.141,0,3.951,0.183,5.43,0.549c1.479,0.366,2.676,0.874,3.592,1.521
		c0.915,0.648,1.574,1.409,1.976,2.282c0.401,0.874,0.602,1.817,0.602,2.832c0,0.817-0.127,1.603-0.38,2.355
		c-0.254,0.754-0.651,1.455-1.194,2.103c-0.542,0.648-1.239,1.218-2.091,1.711c-0.853,0.493-1.877,0.887-3.075,1.183V26.572z
		 M14.385,25.875h2.493c1.676,0,3.085-0.105,4.226-0.317c1.141-0.211,2.056-0.57,2.747-1.078c0.69-0.507,1.184-1.179,1.479-2.018
		c0.297-0.838,0.444-1.884,0.444-3.138c0-0.958-0.099-1.792-0.296-2.503s-0.563-1.303-1.099-1.775
		c-0.536-0.472-1.278-0.824-2.229-1.057c-0.951-0.232-2.187-0.349-3.708-0.349h-4.056V25.875z M14.385,40.96h4.521
		c1.479,0,2.722-0.116,3.729-0.349c1.007-0.232,1.817-0.616,2.43-1.151c0.612-0.535,1.053-1.236,1.32-2.103s0.401-1.939,0.401-3.222
		c0-1.155-0.123-2.145-0.369-2.969c-0.247-0.824-0.705-1.503-1.374-2.039c-0.669-0.535-1.592-0.93-2.768-1.183
		c-1.176-0.254-2.701-0.381-4.574-0.381h-3.317V40.96z"/>
</g>
</svg>
