<?xml version="1.0" encoding="utf-8"?>
<!-- Generator: Adobe Illustrator 16.0.0, SVG Export Plug-In . SVG Version: 6.00 Build 0)  -->
<!DOCTYPE svg PUBLIC "-//W3C//DTD SVG 1.1//EN" "http://www.w3.org/Graphics/SVG/1.1/DTD/svg11.dtd">
<svg version="1.1" id="레이어_1" transform="matrix(.69 0 0 .69 15.5 15.5)"
	 xmlns="http://www.w3.org/2000/svg" xmlns:xlink="http://www.w3.org/1999/xlink" x="0px" y="0px" width="100px" height="100px"
	 viewBox="0 0 100 100" enable-background="new 0 0 100 100" xml:space="preserve">
<g>
	<path fill="#1C3ED3" d="M97.941,80.759c-0.452-2.23-1.733-4.132-3.609-5.364c-1.877-1.229-4.101-1.626-6.273-1.115l-10.063,2.354
		v-4.208c2.021-1.94,4.119-4.482,5.613-6.803c2.62-4.068,4.476-8.537,5.517-13.274c1.23-5.64,1.258-11.612,0.073-17.271
		c-0.219-1.041-1.221-1.706-2.236-1.481c-1.021,0.221-1.67,1.246-1.451,2.289c1.073,5.117,1.048,10.518-0.066,15.617
		c-0.941,4.284-2.617,8.32-4.983,11.998c-0.703,1.09-1.554,2.235-2.465,3.327V45.451c0-1.066-0.845-1.929-1.887-1.929H61.188V22.929
		c0-1.061-0.842-1.923-1.878-1.93l-16.809-0.058c-0.002,0-0.006,0-0.006,0c-0.5,0-0.979,0.202-1.332,0.563
		c-0.355,0.363-0.554,0.852-0.554,1.366v10.712H25.686c-1.04,0-1.885,0.862-1.885,1.928V54.61h-4.202v-2.62
		c0-1.065-0.845-1.928-1.887-1.928h-1.935c-0.328-1.854-0.52-3.736-0.564-5.618c-0.111-4.571,0.598-9.043,2.105-13.296
		c0.353-0.991,0.751-1.978,1.187-2.936c0.44-0.965,0.03-2.113-0.914-2.563c-0.944-0.448-2.068-0.031-2.505,0.935
		c-0.483,1.06-0.924,2.155-1.313,3.251c-1.668,4.705-2.451,9.652-2.331,14.705c0.044,1.848,0.218,3.696,0.509,5.523H3.434
		c-1.042,0-1.887,0.864-1.887,1.928v33.896c0,1.065,0.846,1.93,1.887,1.93h14.277c1.042,0,1.887-0.864,1.887-1.93v-1.833h7.094
		l28.739,11.526c2.681,1.075,5.492,1.618,8.318,1.618c1.885,0,3.773-0.242,5.642-0.724l22.521-5.856
		C96.192,89.506,98.841,85.178,97.941,80.759z M74.221,47.379v30.137l-5.043,1.181c-0.54,0.128-1.092,0.226-1.641,0.303
		c-2.101,0.296-4.246,0.234-6.324-0.187c-0.01-0.002-0.018-0.003-0.024-0.005v-2.925c1.435-2.192,1.914-4.975,1.157-7.512
		c-0.208-0.711-0.508-1.393-0.884-2.026c-0.089-0.141-0.178-0.283-0.27-0.417c0-0.004-0.004-0.007-0.004-0.009V47.377h13.032V47.379
		L74.221,47.379z M44.381,24.807l13.033,0.045v38.005l-7.285-3.08l-5.748-2.434V24.807z M27.573,37.439h13.034v18.305l-2.339-0.987
		c-0.229-0.1-0.476-0.146-0.722-0.146h-9.973V37.439z M15.825,83.96H5.321V53.92h8.9c0.003,0,0.007,0,0.013,0
		c0.003,0,0.007,0,0.01,0h1.583L15.825,83.96L15.825,83.96z M90.989,86.881l-22.53,5.852c-3.887,1.014-7.914,0.753-11.65-0.742
		l-29.07-11.659c-0.219-0.086-0.454-0.134-0.688-0.134h-7.451V58.465h17.572l12.203,5.165l6.679,2.827
		c2.362,1.001,3.492,3.834,2.527,6.247c-0.198,0.485-0.439,0.947-0.758,1.355c-1.181,1.525-3.123,2.198-4.943,1.747
		c-0.016-0.004-0.028-0.01-0.043-0.014c-0.11-0.024-0.218-0.061-0.325-0.096l-12.692-4.989c-0.102-0.041-0.158-0.062-0.158-0.062
		c-0.972-0.383-2.063,0.113-2.437,1.108c-0.373,0.995,0.112,2.11,1.084,2.49c0,0,7.154,2.814,12.61,4.966
		c0.11,0.045,0.222,0.085,0.329,0.123l4.188,1.646c1.268,0.5,2.529,0.995,3.847,1.34c2.238,0.584,4.56,0.818,6.867,0.689
		c1.304-0.071,2.602-0.256,3.87-0.553l6.507-1.521c0.008-0.002,0.013-0.006,0.021-0.006L88.9,78.037
		c1.172-0.275,2.383-0.06,3.395,0.605c1.018,0.664,1.708,1.696,1.954,2.905C94.734,83.936,93.303,86.279,90.989,86.881z"/>
	<path fill="#1C3ED3" d="M25.668,17.048c0.45,0,0.903-0.163,1.263-0.497c3.365-3.108,7.384-5.587,11.624-7.169
		c4.594-1.715,9.63-2.447,14.564-2.115c3.528,0.237,6.991,1.007,10.283,2.29c0.973,0.379,2.065-0.12,2.435-1.115
		c0.373-0.996-0.119-2.108-1.093-2.49c-3.643-1.417-7.472-2.269-11.375-2.533c-5.457-0.368-11.025,0.443-16.107,2.339
		c-4.691,1.751-9.136,4.494-12.858,7.931c-0.773,0.713-0.833,1.933-0.137,2.724C24.639,16.834,25.153,17.048,25.668,17.048z"/>
	<path fill="#1C3ED3" d="M68.482,30.811c0.358,0.316,0.799,0.472,1.238,0.472c0.527,0,1.05-0.223,1.422-0.664l15.519-18.263
		c0.687-0.804,0.603-2.021-0.185-2.72c-0.786-0.699-1.979-0.613-2.661,0.192L68.299,28.091
		C67.613,28.893,67.696,30.113,68.482,30.811z"/>
	<path fill="#1C3ED3" d="M82.391,22.565c-2.615,0-4.737,2.172-4.737,4.841c0,2.672,2.122,4.843,4.737,4.843
		c2.609,0,4.733-2.173,4.733-4.843S85,22.565,82.391,22.565z M82.391,28.392c-0.531,0-0.961-0.442-0.961-0.986
		c0-0.541,0.43-0.983,0.961-0.983c0.528,0,0.963,0.442,0.963,0.983C83.354,27.95,82.919,28.392,82.391,28.392z"/>
	<path fill="#1C3ED3" d="M71.916,18.273c2.611,0,4.734-2.172,4.734-4.842s-2.123-4.842-4.734-4.842
		c-2.609,0-4.733,2.173-4.733,4.842C67.181,16.101,69.307,18.273,71.916,18.273z M71.916,12.446c0.528,0,0.963,0.442,0.963,0.985
		c0,0.542-0.435,0.984-0.963,0.984c-0.531,0-0.963-0.442-0.963-0.984C70.953,12.889,71.385,12.446,71.916,12.446z"/>
	<path fill="#1C3ED3" d="M18.962,21.581c0.303,0.741,1.047,1.23,1.834,1.188c0.779-0.042,1.461-0.581,1.702-1.336
		c0.243-0.764-0.023-1.631-0.647-2.12c-0.635-0.495-1.528-0.526-2.194-0.075C18.919,19.741,18.621,20.743,18.962,21.581z"/>
</g>
</svg>
