<?xml version="1.0" encoding="utf-8"?>
<!-- Generator: Adobe Illustrator 16.0.0, SVG Export Plug-In . SVG Version: 6.00 Build 0)  -->
<!DOCTYPE svg PUBLIC "-//W3C//DTD SVG 1.1//EN" "http://www.w3.org/Graphics/SVG/1.1/DTD/svg11.dtd">
<svg version="1.1" id="레이어_1" transform="matrix(.69 0 0 .69 15.5 15.5)"
	 xmlns="http://www.w3.org/2000/svg" xmlns:xlink="http://www.w3.org/1999/xlink" x="0px" y="0px" width="100px" height="100px"
	 viewBox="0 0 100 100" enable-background="new 0 0 100 100" xml:space="preserve">
<g>
	<path fill="#1C3ED3" d="M99.601,81.81c-0.467-2.306-1.792-4.274-3.734-5.548c-1.941-1.271-4.242-1.683-6.489-1.154l-10.411,2.435
		V73.19c2.089-2.009,4.262-4.638,5.806-7.037c2.711-4.209,4.632-8.832,5.707-13.733c1.274-5.835,1.302-12.013,0.077-17.867
		c-0.227-1.077-1.263-1.765-2.314-1.532c-1.056,0.229-1.727,1.289-1.501,2.368c1.109,5.293,1.084,10.881-0.069,16.156
		c-0.974,4.431-2.707,8.607-5.156,12.412c-0.727,1.127-1.607,2.313-2.549,3.441V45.285c0-1.103-0.874-1.996-1.952-1.996H61.579
		V21.986c0-1.098-0.871-1.99-1.942-1.996l-17.389-0.06c-0.002,0-0.006,0-0.006,0c-0.517,0-1.013,0.209-1.378,0.583
		c-0.367,0.375-0.573,0.881-0.573,1.413v11.082H24.853c-1.076,0-1.95,0.892-1.95,1.994V54.76h-4.347v-2.71
		c0-1.102-0.874-1.995-1.952-1.995h-2.001c-0.34-1.918-0.538-3.865-0.584-5.812c-0.115-4.729,0.618-9.356,2.178-13.755
		c0.364-1.025,0.777-2.046,1.227-3.037c0.456-0.999,0.031-2.186-0.945-2.651c-0.977-0.463-2.139-0.032-2.592,0.967
		c-0.5,1.096-0.956,2.229-1.358,3.363c-1.726,4.867-2.536,9.985-2.412,15.212c0.046,1.912,0.226,3.824,0.527,5.714H1.833
		c-1.077,0-1.952,0.893-1.952,1.995v35.066c0,1.101,0.875,1.997,1.952,1.997h14.77c1.078,0,1.952-0.896,1.952-1.997v-1.897h7.339
		l29.731,11.924c2.774,1.113,5.681,1.674,8.605,1.674c1.949,0,3.904-0.25,5.836-0.748l23.299-6.058
		C97.792,90.86,100.532,86.383,99.601,81.81z M75.062,47.28v31.177l-5.216,1.22c-0.56,0.133-1.13,0.235-1.698,0.314
		c-2.174,0.307-4.392,0.243-6.542-0.192c-0.01-0.002-0.019-0.003-0.026-0.006v-3.025c1.485-2.268,1.981-5.147,1.198-7.771
		c-0.216-0.735-0.526-1.441-0.915-2.097c-0.092-0.145-0.184-0.292-0.279-0.431c0-0.004-0.004-0.007-0.004-0.009V47.278h13.482V47.28
		z M44.193,23.928l13.483,0.047v39.317l-7.537-3.187l-5.946-2.517V23.928z M26.805,36.997h13.484v18.937l-2.42-1.022
		c-0.237-0.103-0.492-0.151-0.747-0.151H26.805V36.997z M14.652,85.122H3.785V54.046h9.207c0.003,0,0.007,0,0.013,0
		c0.004,0,0.007,0,0.01,0h1.638V85.122z M92.409,88.144l-23.308,6.053c-4.02,1.049-8.187,0.779-12.051-0.767L26.976,81.368
		c-0.227-0.089-0.469-0.138-0.712-0.138h-7.708V58.748h18.178l12.624,5.343l6.91,2.925c2.443,1.035,3.612,3.967,2.614,6.463
		c-0.205,0.502-0.454,0.979-0.785,1.402c-1.22,1.578-3.23,2.274-5.113,1.806c-0.016-0.003-0.029-0.009-0.045-0.013
		c-0.114-0.026-0.225-0.063-0.336-0.099l-13.13-5.162c-0.105-0.042-0.163-0.063-0.163-0.063c-1.005-0.396-2.133,0.117-2.521,1.146
		c-0.385,1.03,0.116,2.183,1.122,2.577c0,0,7.401,2.912,13.045,5.137c0.115,0.046,0.229,0.088,0.341,0.127l4.333,1.702
		c1.312,0.517,2.616,1.03,3.98,1.387c2.315,0.604,4.716,0.846,7.104,0.713c1.349-0.074,2.69-0.265,4.003-0.572l6.731-1.574
		c0.008-0.002,0.014-0.007,0.023-0.007l12.777-2.991c1.213-0.284,2.465-0.062,3.512,0.627c1.052,0.686,1.768,1.755,2.021,3.005
		C96.284,85.097,94.803,87.521,92.409,88.144z"/>
	<path fill="#1C3ED3" d="M24.834,15.902c0.466,0,0.934-0.169,1.307-0.514c3.481-3.215,7.639-5.78,12.025-7.417
		c4.753-1.774,9.963-2.531,15.066-2.188c3.651,0.245,7.233,1.042,10.639,2.369c1.006,0.392,2.136-0.124,2.518-1.154
		c0.387-1.03-0.123-2.181-1.13-2.575C61.49,2.957,57.53,2.075,53.491,1.802c-5.645-0.38-11.405,0.458-16.663,2.42
		c-4.853,1.812-9.451,4.649-13.302,8.204c-0.8,0.738-0.862,2-0.141,2.818C23.77,15.681,24.302,15.902,24.834,15.902z"/>
	<path fill="#1C3ED3" d="M69.126,30.139c0.371,0.328,0.826,0.489,1.281,0.489c0.545,0,1.086-0.231,1.471-0.687l16.054-18.893
		c0.711-0.832,0.622-2.091-0.191-2.814c-0.813-0.723-2.047-0.634-2.753,0.198L68.936,27.326
		C68.227,28.156,68.313,29.418,69.126,30.139z"/>
	<path fill="#1C3ED3" d="M83.513,21.61c-2.704,0-4.9,2.247-4.9,5.008c0,2.764,2.196,5.01,4.9,5.01c2.701,0,4.898-2.248,4.898-5.01
		C88.411,23.856,86.214,21.61,83.513,21.61z M83.513,27.637c-0.548,0-0.994-0.457-0.994-1.02c0-0.56,0.446-1.017,0.994-1.017
		s0.997,0.457,0.997,1.017C84.51,27.18,84.061,27.637,83.513,27.637z"/>
	<path fill="#1C3ED3" d="M72.678,17.169c2.701,0,4.897-2.247,4.897-5.009c0-2.761-2.196-5.009-4.897-5.009
		c-2.7,0-4.897,2.248-4.897,5.009C67.78,14.922,69.978,17.169,72.678,17.169z M72.678,11.141c0.547,0,0.996,0.458,0.996,1.019
		c0,0.56-0.449,1.018-0.996,1.018c-0.549,0-0.997-0.458-0.997-1.018C71.681,11.599,72.129,11.141,72.678,11.141z"/>
	<path fill="#1C3ED3" d="M17.897,20.591c0.313,0.766,1.083,1.273,1.897,1.229c0.806-0.043,1.511-0.601,1.761-1.382
		c0.251-0.79-0.024-1.688-0.669-2.193c-0.657-0.512-1.581-0.544-2.27-0.077C17.852,18.688,17.544,19.724,17.897,20.591z"/>
</g>
</svg>
