<?xml version="1.0" encoding="utf-8"?>
<!-- Generator: Adobe Illustrator 16.0.0, SVG Export Plug-In . SVG Version: 6.00 Build 0)  -->
<!DOCTYPE svg PUBLIC "-//W3C//DTD SVG 1.1//EN" "http://www.w3.org/Graphics/SVG/1.1/DTD/svg11.dtd">
<svg version="1.1" id="레이어_1" transform="matrix(.69 0 0 .69 15.5 15.5)"
	 xmlns="http://www.w3.org/2000/svg" xmlns:xlink="http://www.w3.org/1999/xlink" x="0px" y="0px" width="100px" height="100px"
	 viewBox="0 0 100 100" enable-background="new 0 0 100 100" xml:space="preserve">
<path fill="#1C3ED3" d="M100.5,41.601h-3.625l-5.401,2.842c-0.609-0.336-1.241-0.619-1.923-0.79l-6.795-1.701V41.18
	c3.006-2.099,4.84-5.564,4.84-9.256v-2.82c0-6.267-4.909-11.509-10.943-11.692c-0.307-0.008-0.608,0.003-0.912,0.019l1.763-4.125
	l-8.542-8.539l-5.033,3.277c-1.914-1.076-3.938-1.916-6.038-2.504l-1.243-5.875H44.353L43.11,5.541
	c-2.101,0.588-4.126,1.427-6.038,2.505l-5.035-3.277l-8.534,8.534l1.732,4.128c-0.066-0.004-0.129-0.016-0.194-0.017
	c-3.09-0.09-5.999,1.037-8.208,3.183c-2.213,2.144-3.431,5.021-3.431,8.101v3.227c0,3.692,1.833,7.156,4.838,9.253v0.774
	l-4.432,1.108l-8.034-4.686H0.498v33.423l15.868,5.287h3.09l0.386-1.351l4.863,2.92c0.08,2.645,2.201,4.772,4.843,4.866
	c0.093,2.631,2.207,4.745,4.839,4.838c0.093,2.631,2.208,4.745,4.839,4.839c0.096,2.692,2.302,4.856,5.016,4.856
	c1.008,0,1.997-0.313,2.828-0.874l1.429,1.263c0.895,0.788,2.047,1.226,3.245,1.226h0.299c2.684,0,4.867-2.171,4.901-4.847
	c2.656-0.033,4.806-2.184,4.841-4.839c2.654-0.034,4.805-2.188,4.837-4.843c2.681-0.063,4.847-2.254,4.847-4.949
	c0-0.162-0.008-0.322-0.026-0.484L100.5,65.179V41.601z M84.369,29.104v2.82c0,2.862-1.546,5.537-4.035,6.979l-0.807,0.466
	l0.005,5.104l8.059,2.013l-17.736,9.336v-4.345c0-2.168-0.876-4.154-2.311-5.621l5.536-1.383v-5.108l-0.805-0.464
	c-2.488-1.44-4.035-4.114-4.035-6.977v-3.227c0-2.199,0.869-4.256,2.451-5.789c1.579-1.53,3.673-2.355,5.863-2.271
	C80.864,20.766,84.369,24.565,84.369,29.104z M52.931,54.554l-7.301-2.334c-3.328-1.065-6.929-1.225-10.335-0.472l-0.925,0.205
	v-0.477c0-2.224,1.508-4.155,3.664-4.696l9.239-2.308v-5.108l-0.805-0.464c-2.489-1.44-4.034-4.114-4.034-6.977v-3.227
	c0-2.199,0.87-4.256,2.451-5.789c1.579-1.53,3.687-2.355,5.864-2.271c4.31,0.129,7.814,3.928,7.814,8.467v2.82
	c0,2.862-1.546,5.537-4.035,6.979l-0.808,0.466l0.006,5.104l9.237,2.308c2.155,0.541,3.664,2.472,3.664,4.696v6.044l-0.397,0.209
	h-0.987l-9.918-2.833C54.543,54.676,53.739,54.585,52.931,54.554z M34.73,23.805c3.029-5.869,9.125-9.624,15.768-9.624
	c6.579,0,12.65,3.705,15.701,9.494c-0.768,1.539-1.183,3.244-1.183,5.022v3.227c0,3.692,1.83,7.156,4.838,9.253v0.774l-6.452,1.616
	l-6.454-1.616V41.18c3.006-2.099,4.841-5.564,4.841-9.256v-2.82c0-6.267-4.91-11.509-10.943-11.692
	c-3.088-0.09-5.999,1.037-8.208,3.183c-2.212,2.146-3.43,5.023-3.43,8.103v3.227c0,3.692,1.833,7.156,4.84,9.253v0.774l-6.453,1.616
	l-6.453-1.616V41.18c3.006-2.099,4.84-5.564,4.84-9.256v-2.82C35.982,27.206,35.525,25.404,34.73,23.805z M27.313,14.051
	l5.154-5.153l4.535,2.952l0.867-0.533c2.175-1.333,4.525-2.308,6.985-2.896l0.991-0.238l1.123-5.292h7.062l1.12,5.29l0.993,0.237
	c2.46,0.589,4.81,1.564,6.983,2.897l0.869,0.532l4.535-2.952l5.146,5.148l-1.827,4.284c-1.246,0.535-2.402,1.289-3.406,2.262
	c-0.067,0.065-0.123,0.134-0.188,0.201c-3.799-6.041-10.518-9.836-17.757-9.836c-7.29,0-14.027,3.83-17.817,9.933
	c-1.014-1.062-2.221-1.922-3.558-2.522L27.313,14.051z M21.466,44.473v-5.108l-0.805-0.464c-2.488-1.44-4.034-4.114-4.034-6.977
	v-3.227c0-2.199,0.87-4.256,2.451-5.789c1.578-1.53,3.679-2.355,5.864-2.271c4.309,0.129,7.815,3.928,7.815,8.467v2.82
	c0,2.862-1.547,5.537-4.037,6.979l-0.807,0.466l0.006,5.104l5.534,1.383c-1.434,1.467-2.31,3.453-2.31,5.621v1.195l-5.032,1.119
	l0.131-0.458l0.061-2.981l-8.506-4.962L21.466,44.473z M3.724,41.601h1.175l11.6,6.766l-5.852,23.411L3.724,69.47V41.601z
	 M16.889,73.859l-3.174-1.058l5.685-22.742l3.679,2.146v0.46l-6.055,21.193H16.889z M27.918,78.504c0-0.477,0.191-0.942,0.528-1.28
	l2.835-2.833c0.337-0.339,0.804-0.531,1.279-0.531c0.997,0,1.809,0.813,1.809,1.81c0,0.476-0.192,0.941-0.53,1.277l-2.836,2.837
	c-0.336,0.338-0.802,0.527-1.278,0.527C28.729,80.31,27.918,79.502,27.918,78.504z M32.757,83.342c0-0.475,0.192-0.941,0.528-1.279
	l2.836-2.834c0.336-0.337,0.803-0.53,1.278-0.53c0.997,0,1.808,0.812,1.808,1.81c0,0.476-0.192,0.942-0.529,1.278l-2.834,2.835
	c-0.338,0.336-0.805,0.527-1.28,0.527C33.568,85.148,32.757,84.34,32.757,83.342z M37.595,88.18c0-0.475,0.192-0.942,0.529-1.279
	l2.836-2.834c0.337-0.338,0.803-0.53,1.278-0.53c0.998,0,1.809,0.812,1.809,1.808c0,0.478-0.192,0.943-0.53,1.278l-2.834,2.838
	c-0.337,0.337-0.803,0.528-1.279,0.528C38.407,89.989,37.595,89.177,37.595,88.18z M44.242,94.826c-0.997,0-1.808-0.81-1.808-1.806
	c0-0.477,0.192-0.942,0.529-1.28l2.835-2.836c0.338-0.336,0.804-0.528,1.28-0.528c0.997,0,1.808,0.813,1.808,1.81
	c0,0.475-0.192,0.941-0.53,1.278l-2.834,2.835C45.183,94.635,44.718,94.826,44.242,94.826z M52.042,96.44h-0.299
	c-0.411,0-0.804-0.148-1.111-0.421l-1.206-1.063l1.211-1.212c0.434-0.432,0.769-0.947,1.018-1.498l1.466,1.221
	c0.383,0.319,0.604,0.791,0.604,1.291C53.725,95.687,52.97,96.44,52.042,96.44z M66.507,81.925h-0.279
	c-0.404,0-0.8-0.146-1.11-0.404l-8.746-7.287l-2.066,2.479l8.494,7.077c0.383,0.319,0.604,0.791,0.604,1.293
	c0,0.927-0.755,1.681-1.682,1.681h-0.354c-0.39,0-0.774-0.14-1.076-0.39l-8.76-7.301l-2.066,2.479l8.493,7.079
	c0.384,0.318,0.604,0.787,0.604,1.29c0,0.928-0.754,1.683-1.682,1.683c-0.618,0-1.223-0.219-1.697-0.614l-3.601-3
	c-0.792-1.621-2.422-2.751-4.33-2.819c-0.092-2.632-2.207-4.746-4.839-4.84c-0.093-2.631-2.207-4.745-4.839-4.839
	c-0.094-2.691-2.299-4.856-5.014-4.856c-1.326,0-2.622,0.538-3.56,1.474l-2.835,2.835c-0.169,0.171-0.31,0.362-0.452,0.552
	l-4.955-2.972l4.344-15.201l10.889-2.422c2.856-0.638,5.869-0.5,8.653,0.393l2.376,0.76l-8.054,4.028
	c-1.841,0.921-2.984,2.773-2.984,4.832v0.318c0,2.98,2.424,5.403,5.402,5.403c0.979,0,1.943-0.266,2.78-0.771l6.006-3.602
	c1.206-0.723,2.825-0.564,3.868,0.373l13.628,12.264c0.365,0.332,0.573,0.803,0.573,1.293C68.24,81.148,67.462,81.925,66.507,81.925
	z M97.272,63.184L70.101,76.773c-0.088-0.093-0.181-0.184-0.278-0.27L56.197,64.24c-1.194-1.079-2.737-1.671-4.345-1.671
	c-1.175,0-2.331,0.319-3.343,0.927l-6.008,3.602c-0.337,0.204-0.722,0.311-1.117,0.311c-1.201,0-2.177-0.976-2.177-2.178v-0.318
	c0-0.831,0.463-1.576,1.204-1.949l8.997-4.496c1.54-0.771,3.367-0.944,5.027-0.468l10.136,2.897l2.455,0.061l30.246-15.92V63.184z"
	/>
<path fill="#1C3ED3" d="M100.125,41.976H96.5l-5.401,2.842c-0.609-0.336-1.241-0.619-1.923-0.79l-6.795-1.701v-0.771
	c3.006-2.099,4.84-5.564,4.84-9.256v-2.82c0-6.267-4.909-11.509-10.943-11.692c-0.307-0.008-0.608,0.003-0.912,0.019l1.763-4.125
	l-8.542-8.539l-5.033,3.277c-1.914-1.076-3.938-1.916-6.038-2.504L56.271,0.04H43.978l-1.243,5.876
	c-2.101,0.588-4.126,1.427-6.038,2.505l-5.035-3.277l-8.534,8.534l1.732,4.128c-0.066-0.004-0.129-0.016-0.194-0.017
	c-3.09-0.09-5.999,1.037-8.208,3.183c-2.213,2.144-3.431,5.021-3.431,8.101v3.227c0,3.692,1.833,7.156,4.838,9.253v0.774
	l-4.432,1.108L5.398,38.75H0.123v33.423l15.868,5.287h3.09l0.386-1.351l4.863,2.92c0.08,2.645,2.201,4.772,4.843,4.866
	c0.093,2.631,2.207,4.745,4.839,4.838c0.093,2.631,2.208,4.745,4.839,4.839c0.096,2.692,2.302,4.856,5.016,4.856
	c1.008,0,1.997-0.313,2.828-0.874l1.429,1.263c0.895,0.788,2.047,1.226,3.245,1.226h0.299c2.684,0,4.867-2.171,4.901-4.847
	c2.656-0.033,4.806-2.184,4.841-4.839c2.654-0.034,4.805-2.188,4.837-4.843c2.681-0.063,4.847-2.254,4.847-4.949
	c0-0.162-0.008-0.322-0.026-0.484l29.059-14.526V41.976z M83.994,29.479v2.82c0,2.862-1.546,5.537-4.035,6.979l-0.807,0.466
	l0.005,5.104l8.059,2.013l-17.736,9.336v-4.345c0-2.168-0.876-4.154-2.311-5.621l5.536-1.383V39.74L71.9,39.276
	c-2.488-1.44-4.035-4.114-4.035-6.977v-3.227c0-2.199,0.869-4.256,2.451-5.789c1.579-1.53,3.673-2.355,5.863-2.271
	C80.489,21.141,83.994,24.94,83.994,29.479z M52.556,54.929l-7.301-2.334c-3.328-1.065-6.929-1.225-10.335-0.472l-0.925,0.205
	v-0.477c0-2.224,1.508-4.155,3.664-4.696l9.239-2.308V39.74l-0.805-0.464c-2.489-1.44-4.034-4.114-4.034-6.977v-3.227
	c0-2.199,0.87-4.256,2.451-5.789c1.579-1.53,3.687-2.355,5.864-2.271c4.31,0.129,7.814,3.928,7.814,8.467v2.82
	c0,2.862-1.546,5.537-4.035,6.979l-0.808,0.466l0.006,5.104l9.237,2.308c2.155,0.541,3.664,2.472,3.664,4.696v6.044l-0.397,0.209
	h-0.987l-9.918-2.833C54.168,55.051,53.364,54.96,52.556,54.929z M34.355,24.18c3.029-5.869,9.125-9.624,15.768-9.624
	c6.579,0,12.65,3.705,15.701,9.494c-0.768,1.539-1.183,3.244-1.183,5.022v3.227c0,3.692,1.83,7.156,4.838,9.253v0.774l-6.452,1.616
	l-6.454-1.616v-0.771c3.006-2.099,4.841-5.564,4.841-9.256v-2.82c0-6.267-4.91-11.509-10.943-11.692
	c-3.088-0.09-5.999,1.037-8.208,3.183c-2.212,2.146-3.43,5.023-3.43,8.103v3.227c0,3.692,1.833,7.156,4.84,9.253v0.774l-6.453,1.616
	l-6.453-1.616v-0.771c3.006-2.099,4.84-5.564,4.84-9.256v-2.82C35.607,27.581,35.15,25.779,34.355,24.18z M26.938,14.426
	l5.154-5.153l4.535,2.952l0.867-0.533c2.175-1.333,4.525-2.308,6.985-2.896l0.991-0.238l1.123-5.292h7.062l1.12,5.29l0.993,0.237
	c2.46,0.589,4.81,1.564,6.983,2.897l0.869,0.532l4.535-2.952l5.146,5.148l-1.827,4.284c-1.246,0.535-2.402,1.289-3.406,2.262
	C68,21.031,67.944,21.1,67.88,21.167c-3.799-6.041-10.518-9.836-17.757-9.836c-7.29,0-14.027,3.83-17.817,9.933
	c-1.014-1.062-2.221-1.922-3.558-2.522L26.938,14.426z M21.091,44.848V39.74l-0.805-0.464c-2.488-1.44-4.034-4.114-4.034-6.977
	v-3.227c0-2.199,0.87-4.256,2.451-5.789c1.578-1.53,3.679-2.355,5.864-2.271c4.309,0.129,7.815,3.928,7.815,8.467v2.82
	c0,2.862-1.547,5.537-4.037,6.979l-0.807,0.466l0.006,5.104l5.534,1.383c-1.434,1.467-2.31,3.453-2.31,5.621v1.195l-5.032,1.119
	l0.131-0.458l0.061-2.981l-8.506-4.962L21.091,44.848z M3.349,41.976h1.175l11.6,6.766l-5.852,23.411l-6.923-2.308V41.976z
	 M16.514,74.234l-3.174-1.058l5.685-22.742l3.679,2.146v0.46l-6.055,21.193H16.514z M27.543,78.879c0-0.477,0.191-0.942,0.528-1.28
	l2.835-2.833c0.337-0.339,0.804-0.531,1.279-0.531c0.997,0,1.809,0.813,1.809,1.81c0,0.476-0.192,0.941-0.53,1.277l-2.836,2.837
	c-0.336,0.338-0.802,0.527-1.278,0.527C28.354,80.685,27.543,79.877,27.543,78.879z M32.382,83.717c0-0.475,0.192-0.941,0.528-1.279
	l2.836-2.834c0.336-0.337,0.803-0.53,1.278-0.53c0.997,0,1.808,0.812,1.808,1.81c0,0.476-0.192,0.942-0.529,1.278l-2.834,2.835
	c-0.338,0.336-0.805,0.527-1.28,0.527C33.193,85.523,32.382,84.715,32.382,83.717z M37.22,88.555c0-0.475,0.192-0.942,0.529-1.279
	l2.836-2.834c0.337-0.338,0.803-0.53,1.278-0.53c0.998,0,1.809,0.812,1.809,1.808c0,0.478-0.192,0.943-0.53,1.278l-2.834,2.838
	c-0.337,0.337-0.803,0.528-1.279,0.528C38.032,90.364,37.22,89.552,37.22,88.555z M43.867,95.201c-0.997,0-1.808-0.81-1.808-1.806
	c0-0.477,0.192-0.942,0.529-1.28l2.835-2.836c0.338-0.336,0.804-0.528,1.28-0.528c0.997,0,1.808,0.813,1.808,1.81
	c0,0.475-0.192,0.941-0.53,1.278l-2.834,2.835C44.808,95.01,44.343,95.201,43.867,95.201z M51.667,96.815h-0.299
	c-0.411,0-0.804-0.148-1.111-0.421l-1.206-1.063l1.211-1.212c0.434-0.432,0.769-0.947,1.018-1.498l1.466,1.221
	c0.383,0.319,0.604,0.791,0.604,1.291C53.35,96.062,52.595,96.815,51.667,96.815z M66.132,82.3h-0.279
	c-0.404,0-0.8-0.146-1.11-0.404l-8.746-7.287l-2.066,2.479l8.494,7.077c0.383,0.319,0.604,0.791,0.604,1.293
	c0,0.927-0.755,1.681-1.682,1.681h-0.354c-0.39,0-0.774-0.14-1.076-0.39l-8.76-7.301l-2.066,2.479l8.493,7.079
	c0.384,0.318,0.604,0.787,0.604,1.29c0,0.928-0.754,1.683-1.682,1.683c-0.618,0-1.223-0.219-1.697-0.614l-3.601-3
	c-0.792-1.621-2.422-2.751-4.33-2.819c-0.092-2.632-2.207-4.746-4.839-4.84c-0.093-2.631-2.207-4.745-4.839-4.839
	c-0.094-2.691-2.299-4.856-5.014-4.856c-1.326,0-2.622,0.538-3.56,1.474l-2.835,2.835c-0.169,0.171-0.31,0.362-0.452,0.552
	l-4.955-2.972l4.344-15.201l10.889-2.422c2.856-0.638,5.869-0.5,8.653,0.393l2.376,0.76l-8.054,4.028
	c-1.841,0.921-2.984,2.773-2.984,4.832v0.318c0,2.98,2.424,5.403,5.402,5.403c0.979,0,1.943-0.266,2.78-0.771l6.006-3.602
	c1.206-0.723,2.825-0.564,3.868,0.373l13.628,12.264c0.365,0.332,0.573,0.803,0.573,1.293C67.865,81.523,67.087,82.3,66.132,82.3z
	 M96.897,63.559L69.726,77.148c-0.088-0.093-0.181-0.184-0.278-0.27L55.822,64.615c-1.194-1.079-2.737-1.671-4.345-1.671
	c-1.175,0-2.331,0.319-3.343,0.927l-6.008,3.602c-0.337,0.204-0.722,0.311-1.117,0.311c-1.201,0-2.177-0.976-2.177-2.178v-0.318
	c0-0.831,0.463-1.576,1.204-1.949l8.997-4.496c1.54-0.771,3.367-0.944,5.027-0.468l10.136,2.897l2.455,0.061l30.246-15.92V63.559z"
	/>
</svg>
