<?xml version="1.0" encoding="utf-8"?>
<!-- Generator: Adobe Illustrator 16.0.0, SVG Export Plug-In . SVG Version: 6.00 Build 0)  -->
<!DOCTYPE svg PUBLIC "-//W3C//DTD SVG 1.1//EN" "http://www.w3.org/Graphics/SVG/1.1/DTD/svg11.dtd">
<svg version="1.1" id="레이어_1" transform="matrix(.69 0 0 .69 15.5 15.5)"
	 xmlns="http://www.w3.org/2000/svg" xmlns:xlink="http://www.w3.org/1999/xlink" x="0px" y="0px" width="100px" height="100px"
	 viewBox="0 0 100 100" enable-background="new 0 0 100 100" xml:space="preserve">
<path fill="#1C3ED3" d="M97.974,42.31h-3.468l-5.167,2.718c-0.582-0.321-1.188-0.592-1.84-0.755l-6.5-1.626v-0.738
	c2.875-2.008,4.63-5.323,4.63-8.855v-2.698c0-5.995-4.696-11.01-10.469-11.185c-0.295-0.008-0.582,0.003-0.873,0.018l1.687-3.946
	l-8.171-8.168l-4.815,3.135c-1.829-1.03-3.768-1.833-5.777-2.396l-1.19-5.621H44.26l-1.19,5.621
	c-2.009,0.563-3.947,1.365-5.776,2.397l-4.816-3.135l-8.165,8.164l1.657,3.949c-0.063-0.003-0.123-0.015-0.186-0.016
	c-2.956-0.087-5.738,0.992-7.853,3.044c-2.117,2.052-3.282,4.804-3.282,7.75v3.087c0,3.532,1.754,6.846,4.629,8.852v0.741
	l-4.241,1.059l-7.687-4.481H2.306v31.974l15.18,5.057h2.956l0.369-1.291l4.653,2.794c0.076,2.529,2.105,4.563,4.633,4.653
	c0.089,2.517,2.111,4.54,4.629,4.628c0.089,2.517,2.112,4.541,4.629,4.63c0.092,2.575,2.202,4.645,4.799,4.645
	c0.964,0,1.91-0.297,2.705-0.834l1.368,1.207c0.856,0.754,1.958,1.174,3.104,1.174h0.286c2.569,0,4.655-2.076,4.688-4.639
	c2.541-0.03,4.6-2.088,4.634-4.627c2.538-0.034,4.595-2.095,4.625-4.635c2.566-0.06,4.638-2.156,4.638-4.734
	c0-0.155-0.008-0.308-0.024-0.462l27.799-13.897L97.974,42.31L97.974,42.31z M82.543,30.355v2.697c0,2.738-1.481,5.297-3.861,6.677
	l-0.771,0.446l0.004,4.882l7.71,1.925l-16.967,8.931v-4.157c0-2.073-0.84-3.973-2.212-5.376l5.297-1.323v-4.887l-0.771-0.444
	c-2.381-1.377-3.86-3.935-3.86-6.675v-3.087c0-2.103,0.832-4.072,2.345-5.538c1.51-1.464,3.514-2.252,5.61-2.172
	C79.188,22.378,82.543,26.012,82.543,30.355z M52.466,54.703l-6.984-2.233c-3.185-1.021-6.628-1.173-9.887-0.453l-0.884,0.198
	v-0.458c0-2.127,1.442-3.975,3.505-4.493l8.839-2.208v-4.886l-0.771-0.444c-2.381-1.377-3.859-3.935-3.859-6.675v-3.087
	c0-2.103,0.832-4.072,2.344-5.538c1.512-1.464,3.528-2.252,5.61-2.172c4.123,0.123,7.474,3.757,7.474,8.101v2.697
	c0,2.738-1.477,5.297-3.859,6.677l-0.771,0.446l0.006,4.882l8.835,2.208c2.062,0.518,3.505,2.365,3.505,4.492v5.783l-0.379,0.2
	h-0.943l-9.488-2.71C54.008,54.818,53.239,54.731,52.466,54.703z M35.055,25.286c2.897-5.615,8.729-9.207,15.084-9.207
	c6.295,0,12.102,3.544,15.02,9.082c-0.733,1.472-1.131,3.103-1.131,4.804v3.087c0,3.532,1.75,6.846,4.628,8.852v0.741l-6.172,1.545
	l-6.175-1.545v-0.738c2.876-2.008,4.632-5.323,4.632-8.855v-2.697c0-5.997-4.696-11.011-10.469-11.186
	c-2.955-0.087-5.738,0.991-7.852,3.044c-2.117,2.054-3.282,4.806-3.282,7.752v3.087c0,3.532,1.754,6.846,4.63,8.852v0.741
	l-6.173,1.545l-6.172-1.545v-0.738c2.875-2.008,4.63-5.323,4.63-8.855v-2.698C36.252,28.539,35.814,26.815,35.055,25.286z
	 M27.958,15.955l4.931-4.93l4.338,2.824l0.831-0.511c2.08-1.274,4.328-2.207,6.682-2.769l0.948-0.228l1.074-5.063h6.755l1.073,5.062
	l0.948,0.225c2.354,0.563,4.603,1.497,6.682,2.772l0.831,0.509l4.337-2.824l4.925,4.925l-1.748,4.098
	c-1.192,0.512-2.299,1.233-3.259,2.164c-0.066,0.064-0.119,0.131-0.18,0.194c-3.634-5.779-10.063-9.409-16.987-9.409
	c-6.974,0-13.418,3.664-17.044,9.501c-0.971-1.015-2.125-1.838-3.403-2.412L27.958,15.955z M22.365,45.058v-4.887l-0.77-0.444
	c-2.381-1.377-3.859-3.935-3.859-6.675v-3.087c0-2.103,0.832-4.072,2.345-5.538c1.51-1.464,3.519-2.252,5.609-2.172
	c4.123,0.123,7.476,3.757,7.476,8.101v2.697c0,2.738-1.479,5.297-3.862,6.677l-0.772,0.446l0.006,4.882l5.294,1.323
	c-1.372,1.403-2.21,3.303-2.21,5.376v1.145l-4.814,1.069l0.125-0.437l0.06-2.853l-8.138-4.747L22.365,45.058z M5.392,42.31h1.125
	l11.098,6.473l-5.598,22.396l-6.624-2.207V42.31z M17.987,73.17l-3.037-1.012l5.439-21.757l3.519,2.054v0.438l-5.792,20.273h-0.129
	V73.17z M28.537,77.613c0-0.456,0.183-0.9,0.505-1.224l2.713-2.712c0.322-0.323,0.768-0.508,1.222-0.508
	c0.954,0,1.731,0.778,1.731,1.732c0,0.455-0.184,0.901-0.507,1.222l-2.713,2.714c-0.322,0.323-0.768,0.504-1.223,0.504
	C29.313,79.342,28.537,78.568,28.537,77.613z M33.167,82.242c0-0.455,0.184-0.901,0.505-1.226l2.713-2.71
	c0.321-0.32,0.768-0.507,1.223-0.507c0.953,0,1.729,0.778,1.729,1.732c0,0.454-0.183,0.899-0.505,1.222l-2.712,2.713
	c-0.323,0.32-0.769,0.503-1.225,0.503C33.942,83.97,33.167,83.196,33.167,82.242z M37.794,86.869c0-0.454,0.184-0.901,0.507-1.224
	l2.712-2.712c0.323-0.321,0.769-0.504,1.223-0.504c0.954,0,1.73,0.775,1.73,1.729c0,0.455-0.184,0.902-0.507,1.222l-2.711,2.716
	c-0.322,0.322-0.768,0.505-1.224,0.505C38.572,88.601,37.794,87.824,37.794,86.869z M44.154,93.228c-0.954,0-1.73-0.775-1.73-1.728
	c0-0.456,0.184-0.901,0.505-1.223l2.713-2.714c0.323-0.322,0.769-0.506,1.224-0.506c0.954,0,1.729,0.778,1.729,1.73
	c0,0.457-0.184,0.901-0.507,1.224l-2.711,2.712C45.053,93.046,44.609,93.228,44.154,93.228z M51.615,94.771h-0.287
	c-0.392,0-0.768-0.141-1.062-0.401l-1.153-1.016l1.159-1.16c0.415-0.413,0.737-0.907,0.974-1.434l1.401,1.168
	c0.366,0.306,0.578,0.756,0.578,1.234C53.226,94.051,52.504,94.771,51.615,94.771z M65.453,80.887h-0.267
	c-0.386,0-0.766-0.141-1.063-0.387l-8.366-6.972L53.781,75.9l8.125,6.771c0.369,0.304,0.579,0.756,0.579,1.236
	c0,0.887-0.724,1.608-1.607,1.608h-0.341c-0.372,0-0.739-0.135-1.029-0.374l-8.381-6.984l-1.975,2.373l8.125,6.771
	c0.366,0.305,0.575,0.753,0.575,1.233c0,0.89-0.72,1.61-1.607,1.61c-0.591,0-1.17-0.209-1.624-0.587l-3.444-2.869
	c-0.758-1.552-2.317-2.635-4.142-2.697c-0.088-2.519-2.112-4.54-4.63-4.631c-0.089-2.517-2.111-4.538-4.628-4.628
	c-0.09-2.574-2.2-4.646-4.797-4.646c-1.268,0-2.508,0.514-3.405,1.409l-2.713,2.713c-0.162,0.164-0.296,0.346-0.432,0.528
	l-4.74-2.844l4.156-14.542l10.417-2.316c2.733-0.611,5.614-0.479,8.278,0.375l2.273,0.728l-7.705,3.854
	c-1.762,0.88-2.855,2.651-2.855,4.621v0.306c0,2.852,2.32,5.169,5.168,5.169c0.937,0,1.859-0.255,2.66-0.738l5.746-3.445
	c1.153-0.691,2.703-0.541,3.7,0.358l13.038,11.731c0.349,0.317,0.547,0.767,0.547,1.235C67.111,80.143,66.366,80.887,65.453,80.887z
	 M94.884,62.957L68.892,75.958c-0.084-0.09-0.173-0.177-0.267-0.259L55.592,63.968c-1.145-1.032-2.62-1.6-4.157-1.6
	c-1.125,0-2.231,0.306-3.199,0.889l-5.747,3.444c-0.322,0.196-0.691,0.298-1.069,0.298c-1.149,0-2.083-0.934-2.083-2.083V64.61
	c0-0.793,0.443-1.507,1.153-1.863l8.607-4.301c1.472-0.738,3.221-0.904,4.809-0.447l9.694,2.771l2.349,0.058l28.936-15.23V62.957z"
	/>
</svg>
