<?xml version="1.0" encoding="utf-8"?>
<!-- Generator: Adobe Illustrator 16.0.0, SVG Export Plug-In . SVG Version: 6.00 Build 0)  -->
<!DOCTYPE svg PUBLIC "-//W3C//DTD SVG 1.1//EN" "http://www.w3.org/Graphics/SVG/1.1/DTD/svg11.dtd">
<svg version="1.1" id="레이어_1" transform="matrix(.69 0 0 .69 15.5 15.5)"
	 xmlns="http://www.w3.org/2000/svg" xmlns:xlink="http://www.w3.org/1999/xlink" x="0px" y="0px" width="100px" height="100px"
	 viewBox="0 0 100 100" enable-background="new 0 0 100 100" xml:space="preserve">
<g>
	<path fill="#1C3ED3" d="M3.629,91.853h4.815v4.822c0,0.886,0.718,1.605,1.605,1.605h67.402c0.887,0,1.605-0.72,1.605-1.605v-6.428
		h-3.21v4.821H11.653v-3.216h36.911v-3.211H5.235V19.546h12.838c0.886,0,1.604-0.72,1.604-1.606V5.086h49.749v30.53h3.21V11.512
		h3.21v27.315h3.21V9.905c0-0.888-0.719-1.606-1.605-1.606h-4.814V3.478c0-0.887-0.718-1.606-1.605-1.606H18.073
		c-0.033,0-0.061,0.016-0.093,0.02c-0.146,0.007-0.29,0.037-0.429,0.084c-0.047,0.015-0.094,0.032-0.139,0.05
		c-0.177,0.077-0.337,0.186-0.475,0.319L2.494,16.808c-0.133,0.137-0.242,0.297-0.319,0.471c-0.023,0.05-0.037,0.099-0.054,0.15
		c-0.046,0.134-0.074,0.272-0.082,0.413c0,0.036-0.021,0.064-0.021,0.1v72.305c0,0.428,0.17,0.837,0.473,1.138
		C2.794,91.688,3.203,91.854,3.629,91.853z M16.469,7.357v8.976H7.503L16.469,7.357z"/>
	<path fill="#1C3ED3" d="M51.774,37.221v-1.605h12.837V27.58c-0.003-2.493-1.904-4.573-4.388-4.793
		c-0.141-0.019-0.283-0.027-0.425-0.026H14.864c-2.659,0-4.815,2.159-4.815,4.819v51.419c0,2.665,2.156,4.82,4.815,4.82h24.072
		v-3.213H22.887v-4.82h12.838v-3.214H22.887v-4.821h11.234v-3.215H22.887v-4.819h11.555v-3.214H22.887v-4.82h14.443v-3.213H22.887
		v-4.82H43.75v-3.213H22.887v-4.82h25.677v1.605H51.774z M59.932,25.985c0.829,0.064,1.473,0.76,1.473,1.595v4.821h-9.63v-6.438
		h7.955C59.797,25.974,59.864,25.981,59.932,25.985z M14.864,25.974h4.814v6.427h-6.419V27.58
		C13.258,26.693,13.977,25.974,14.864,25.974z M19.678,80.606h-4.814c-0.885,0-1.604-0.72-1.604-1.607v-3.213h6.419L19.678,80.606
		L19.678,80.606z M19.678,72.572h-6.419v-4.821h6.419V72.572z M19.678,64.536h-6.419v-4.819h6.419V64.536z M19.678,56.504h-6.419
		v-4.82h6.419V56.504z M19.678,48.469h-6.419v-4.82h6.419V48.469z M19.678,40.436h-6.419v-4.82h6.419V40.436z M22.887,32.401v-6.427
		l25.677-0.008v6.435H22.887z"/>
	<path fill="#1C3ED3" d="M26.098,16.333h12.838v3.213H26.098V16.333z"/>
	<path fill="#1C3ED3" d="M42.146,16.333h6.417v3.213h-6.417V16.333z"/>
	<path fill="#1C3ED3" d="M26.098,9.905h22.466v3.213H26.098V9.905z"/>
	<path fill="#1C3ED3" d="M85.004,77.863l-0.206,0.204c7.022-11.3,4.313-26.092-6.257-34.163s-25.533-6.773-34.562,2.999
		c-9.026,9.771-9.154,24.812-0.295,34.732c8.859,9.923,23.8,11.479,34.505,3.588l11.573,11.591c1.957,1.958,5.127,1.958,7.084,0
		c1.956-1.959,1.956-5.135,0-7.093L85.004,77.863z M40.541,64.536c0-12.422,10.059-22.494,22.466-22.494
		c12.409,0,22.47,10.072,22.47,22.494c0,12.424-10.061,22.495-22.47,22.495C50.604,87.02,40.554,76.956,40.541,64.536z
		 M93.306,95.068c-0.479,0.004-0.938-0.188-1.272-0.527L80.662,83.155c0.872-0.826,1.688-1.714,2.437-2.655l11.479,11.491
		c0.514,0.516,0.67,1.292,0.391,1.964C94.689,94.627,94.033,95.068,93.306,95.068z"/>
	<path fill="#1C3ED3" d="M63.007,45.256c-10.634,0-19.257,8.632-19.257,19.282s8.623,19.281,19.257,19.281
		c10.638,0,19.261-8.631,19.261-19.281C82.255,53.893,73.638,45.268,63.007,45.256z M56.588,64.536c0-3.55,2.875-6.426,6.419-6.426
		c3.549,0,6.42,2.876,6.42,6.426c0,3.551-2.871,6.431-6.42,6.431C59.463,70.967,56.588,68.088,56.588,64.536z M54.722,69.424
		c-2.756-1.059-5.236-2.726-7.254-4.886c2.017-2.156,4.498-3.828,7.254-4.887C52.932,62.663,52.932,66.413,54.722,69.424z
		 M71.293,59.651c2.756,1.059,5.236,2.729,7.253,4.885c-2.017,2.16-4.497,3.829-7.253,4.888
		C73.084,66.413,73.084,62.663,71.293,59.651z M63.007,48.469c7.138,0.009,13.415,4.732,15.407,11.592
		c-4.133-3.199-9.184-4.991-14.407-5.112c-0.661-0.069-1.327-0.069-1.988,0c-5.228,0.119-10.281,1.909-14.417,5.112
		C49.596,53.201,55.871,48.478,63.007,48.469z M63.007,80.606c-7.136-0.009-13.411-4.73-15.405-11.592
		c4.134,3.201,9.184,4.992,14.407,5.114c0.662,0.068,1.327,0.068,1.988,0c5.226-0.119,10.28-1.911,14.417-5.114
		C76.42,75.876,70.145,80.598,63.007,80.606z"/>
	<path fill="#1C3ED3" d="M66.218,64.536c0,1.776-1.436,3.215-3.211,3.215c-1.771,0-3.208-1.438-3.208-3.215
		c0-1.773,1.438-3.214,3.208-3.214C64.782,61.322,66.218,62.764,66.218,64.536z"/>
</g>
</svg>
