<?xml version="1.0" encoding="utf-8"?>
<!-- Generator: Adobe Illustrator 16.0.0, SVG Export Plug-In . SVG Version: 6.00 Build 0)  -->
<!DOCTYPE svg PUBLIC "-//W3C//DTD SVG 1.0//EN" "http://www.w3.org/TR/2001/REC-SVG-20010904/DTD/svg10.dtd">
<svg version="1.0" id="레이어_1" transform="matrix(.69 0 0 .69 15.5 15.5)"
	 xmlns="http://www.w3.org/2000/svg" xmlns:xlink="http://www.w3.org/1999/xlink" x="0px" y="0px" width="100px" height="100px"
	 viewBox="0 0 100 100" enable-background="new 0 0 100 100" xml:space="preserve">
<g>
	<path fill="#1C3ED3" d="M6.528,88.972h4.515v4.521c0,0.83,0.673,1.505,1.505,1.505h63.203c0.831,0,1.506-0.675,1.506-1.505v-6.027
		h-3.011v4.521H14.053v-3.016h34.611V85.96H8.034V21.17h12.039c0.831,0,1.504-0.675,1.504-1.506V7.611h46.649v28.628h3.01V13.637
		h3.011V39.25h3.011V12.129c0-0.832-0.675-1.506-1.506-1.506h-4.515V6.103c0-0.832-0.673-1.506-1.504-1.506h-49.66
		c-0.031,0-0.057,0.015-0.087,0.019c-0.137,0.006-0.272,0.035-0.402,0.079c-0.044,0.014-0.088,0.03-0.13,0.047
		c-0.167,0.072-0.316,0.174-0.446,0.299L5.464,18.603c-0.125,0.128-0.227,0.279-0.299,0.441c-0.021,0.047-0.034,0.093-0.05,0.141
		c-0.043,0.125-0.07,0.255-0.077,0.387c0,0.034-0.02,0.06-0.02,0.094v67.8c0,0.401,0.159,0.785,0.444,1.066
		C5.746,88.816,6.129,88.972,6.528,88.972z M18.568,9.74v8.417h-8.407L18.568,9.74z"/>
	<path fill="#1C3ED3" d="M51.673,37.744v-1.505h12.038v-7.535c-0.003-2.338-1.785-4.289-4.115-4.495
		c-0.132-0.018-0.266-0.025-0.398-0.024H17.064c-2.494,0-4.516,2.024-4.516,4.519v48.215c0,2.499,2.022,4.519,4.516,4.519h22.572
		v-3.013H24.587v-4.519h12.038v-3.014H24.587v-4.521h10.534v-3.015H24.587v-4.519h10.835v-3.014H24.587v-4.519H38.13v-3.014H24.587
		v-4.52H44.15v-3.013H24.587v-4.52h24.077v1.505L51.673,37.744L51.673,37.744z M59.323,27.208c0.777,0.06,1.381,0.713,1.381,1.496
		v4.521h-9.029v-6.037h7.46C59.197,27.198,59.26,27.204,59.323,27.208z M17.064,27.198h4.514v6.026h-6.019v-4.521
		C15.558,27.872,16.232,27.198,17.064,27.198z M21.578,78.425h-4.514c-0.83,0-1.504-0.674-1.504-1.506v-3.013h6.019L21.578,78.425
		L21.578,78.425z M21.578,70.893h-6.019v-4.521h6.019V70.893z M21.578,63.356h-6.019v-4.519h6.019V63.356z M21.578,55.825h-6.019
		v-4.52h6.019V55.825z M21.578,48.291h-6.019v-4.521h6.019V48.291z M21.578,40.758h-6.019v-4.52h6.019V40.758z M24.587,33.224
		v-6.026l24.077-0.008v6.034H24.587z"/>
	<path fill="#1C3ED3" d="M27.598,18.157h12.038v3.013H27.598V18.157z"/>
	<path fill="#1C3ED3" d="M42.646,18.157h6.018v3.013h-6.018V18.157z"/>
	<path fill="#1C3ED3" d="M27.598,12.129h21.066v3.013H27.598V12.129z"/>
	<path fill="#1C3ED3" d="M82.833,75.854l-0.193,0.19c6.585-10.595,4.045-24.466-5.866-32.033
		c-9.912-7.568-23.942-6.352-32.409,2.812c-8.463,9.162-8.583,23.266-0.276,32.567c8.307,9.306,22.317,10.764,32.355,3.365
		l10.852,10.869c1.835,1.835,4.807,1.835,6.643,0c1.834-1.837,1.834-4.814,0-6.651L82.833,75.854z M41.141,63.356
		c0-11.648,9.432-21.092,21.066-21.092c11.636,0,21.069,9.443,21.069,21.092c0,11.65-9.434,21.094-21.069,21.094
		C50.576,84.439,41.153,75.003,41.141,63.356z M90.618,91.986c-0.449,0.004-0.88-0.177-1.192-0.494L78.762,80.815
		c0.818-0.774,1.583-1.606,2.286-2.489l10.763,10.774c0.482,0.484,0.629,1.212,0.366,1.842C91.915,91.573,91.3,91.986,90.618,91.986
		z"/>
	<path fill="#1C3ED3" d="M62.207,45.278c-9.972,0-18.057,8.095-18.057,18.08c0,9.986,8.085,18.079,18.057,18.079
		c9.975,0,18.061-8.093,18.061-18.079C80.256,53.377,72.176,45.29,62.207,45.278z M56.188,63.356c0-3.328,2.696-6.025,6.02-6.025
		c3.328,0,6.02,2.697,6.02,6.025c0,3.33-2.691,6.03-6.02,6.03C58.884,69.387,56.188,66.688,56.188,63.356z M54.438,67.94
		c-2.585-0.993-4.91-2.557-6.803-4.582c1.892-2.021,4.218-3.589,6.803-4.583C52.76,61.601,52.76,65.117,54.438,67.94z
		 M69.977,58.775c2.584,0.994,4.91,2.56,6.801,4.581c-1.891,2.025-4.217,3.591-6.801,4.584
		C71.656,65.117,71.656,61.601,69.977,58.775z M62.207,48.291c6.692,0.009,12.579,4.438,14.447,10.869
		c-3.876-3-8.611-4.68-13.51-4.793c-0.62-0.064-1.244-0.064-1.863,0c-4.903,0.112-9.641,1.789-13.52,4.793
		C49.631,52.729,55.516,48.3,62.207,48.291z M62.207,78.425c-6.691-0.007-12.576-4.435-14.445-10.869
		c3.877,3.002,8.612,4.681,13.509,4.795c0.621,0.063,1.245,0.063,1.864,0c4.9-0.111,9.641-1.792,13.52-4.795
		C74.784,73.99,68.899,78.418,62.207,78.425z"/>
	<path fill="#1C3ED3" d="M65.218,63.356c0,1.666-1.347,3.015-3.011,3.015c-1.66,0-3.009-1.349-3.009-3.015
		c0-1.661,1.349-3.013,3.009-3.013C63.871,60.344,65.218,61.695,65.218,63.356z"/>
</g>
</svg>
