<?xml version="1.0" encoding="utf-8"?>
<!-- Generator: Adobe Illustrator 16.0.0, SVG Export Plug-In . SVG Version: 6.00 Build 0)  -->
<!DOCTYPE svg PUBLIC "-//W3C//DTD SVG 1.1//EN" "http://www.w3.org/Graphics/SVG/1.1/DTD/svg11.dtd">
<svg version="1.1" id="레이어_1" transform="matrix(.69 0 0 .69 15.5 15.5)"
	 xmlns="http://www.w3.org/2000/svg" xmlns:xlink="http://www.w3.org/1999/xlink" x="0px" y="0px" width="100px" height="100px"
	 viewBox="0 0 100 100" enable-background="new 0 0 100 100" xml:space="preserve">
<g>
	<path fill="#1C3ED3" d="M1.822,93.475h5.002v5.009c0,0.921,0.746,1.669,1.667,1.669h70.02c0.921,0,1.667-0.748,1.667-1.669v-6.677
		h-3.334v5.008H10.158v-3.34h38.344v-3.337H3.49V18.361h13.337c0.92,0,1.667-0.748,1.667-1.669V3.339h51.681v31.715h3.334V10.015
		h3.335v28.376h3.334V8.345c0-0.922-0.746-1.669-1.667-1.669h-5.002V1.669C73.509,0.747,72.763,0,71.842,0H16.827
		c-0.034,0-0.063,0.016-0.096,0.02c-0.152,0.007-0.302,0.038-0.446,0.088c-0.049,0.015-0.097,0.033-0.144,0.052
		c-0.183,0.08-0.35,0.193-0.493,0.332L0.643,15.516c-0.138,0.142-0.251,0.309-0.332,0.49c-0.024,0.051-0.038,0.103-0.056,0.156
		c-0.048,0.139-0.077,0.283-0.085,0.429c0,0.037-0.021,0.067-0.021,0.104v75.112c0,0.444,0.177,0.869,0.491,1.182
		C0.954,93.303,1.379,93.477,1.822,93.475z M15.16,5.698v9.324H5.847L15.16,5.698z"/>
	<path fill="#1C3ED3" d="M51.837,36.722v-1.668h13.336v-8.347c-0.003-2.591-1.98-4.751-4.559-4.98
		c-0.146-0.02-0.294-0.028-0.441-0.027h-46.68c-2.762,0-5.002,2.243-5.002,5.007v53.415c0,2.768,2.24,5.008,5.002,5.008H38.5v-3.338
		H21.828v-5.008h13.337v-3.339H21.828v-5.008h11.67v-3.339h-11.67v-5.007h12.004v-3.339H21.828v-5.007h15.004v-3.338H21.828v-5.008
		h21.673v-3.338H21.828v-5.007h26.674v1.668H51.837z M60.311,25.05c0.862,0.066,1.53,0.789,1.529,1.657v5.008H51.837v-6.688h8.265
		C60.171,25.038,60.24,25.046,60.311,25.05z M13.493,25.038h5.001v6.677h-6.669v-5.008C11.825,25.785,12.572,25.038,13.493,25.038z
		 M18.494,81.792h-5.001c-0.92,0-1.667-0.748-1.667-1.67v-3.338h6.669V81.792z M18.494,73.445h-6.669v-5.008h6.669V73.445z
		 M18.494,65.098h-6.669v-5.007h6.669V65.098z M18.494,56.753h-6.669v-5.007h6.669V56.753z M18.494,48.407h-6.669v-5.008h6.669
		V48.407z M18.494,40.061h-6.669v-5.007h6.669V40.061z M21.828,31.715v-6.677l26.674-0.008v6.685H21.828z"/>
	<path fill="#1C3ED3" d="M25.163,15.022H38.5v3.339H25.163V15.022z"/>
	<path fill="#1C3ED3" d="M41.834,15.022h6.667v3.339h-6.667V15.022z"/>
	<path fill="#1C3ED3" d="M25.163,8.345h23.339v3.338H25.163V8.345z"/>
	<path fill="#1C3ED3" d="M86.357,78.941l-0.214,0.214c7.295-11.739,4.479-27.106-6.5-35.49c-10.98-8.384-26.525-7.036-35.904,3.115
		c-9.376,10.15-9.509,25.774-0.307,36.082c9.203,10.307,24.724,11.924,35.845,3.727l12.023,12.04c2.033,2.034,5.327,2.034,7.359,0
		c2.032-2.035,2.032-5.334,0-7.368L86.357,78.941z M40.167,65.098c0-12.905,10.45-23.368,23.339-23.368
		c12.891,0,23.341,10.463,23.341,23.368c0,12.906-10.45,23.368-23.341,23.368C50.622,88.454,40.181,78,40.167,65.098z M94.98,96.815
		c-0.497,0.003-0.973-0.196-1.322-0.548L81.845,84.44c0.908-0.859,1.754-1.781,2.532-2.759l11.924,11.938
		c0.534,0.536,0.696,1.341,0.406,2.04C96.418,96.358,95.736,96.815,94.98,96.815z"/>
	<path fill="#1C3ED3" d="M63.506,45.069c-11.048,0-20.005,8.967-20.005,20.03c0,11.064,8.957,20.031,20.005,20.031
		c11.05,0,20.007-8.967,20.007-20.031C83.501,54.041,74.55,45.081,63.506,45.069z M56.837,65.098c0-3.688,2.987-6.676,6.669-6.676
		c3.685,0,6.669,2.988,6.669,6.676c0,3.689-2.984,6.679-6.669,6.679C59.824,71.777,56.837,68.788,56.837,65.098z M54.899,70.176
		c-2.864-1.1-5.44-2.833-7.536-5.077c2.095-2.24,4.671-3.976,7.536-5.075C53.039,63.152,53.039,67.048,54.899,70.176z
		 M72.113,60.023c2.864,1.1,5.44,2.835,7.536,5.075c-2.096,2.244-4.672,3.978-7.536,5.077
		C73.975,67.048,73.975,63.152,72.113,60.023z M63.506,48.407c7.414,0.009,13.935,4.915,16.005,12.042
		c-4.294-3.323-9.541-5.186-14.967-5.311c-0.687-0.072-1.379-0.072-2.065,0c-5.43,0.123-10.68,1.983-14.977,5.311
		C49.574,53.322,56.093,48.416,63.506,48.407z M63.506,81.792c-7.413-0.009-13.932-4.915-16.004-12.042
		c4.295,3.325,9.54,5.186,14.967,5.312c0.687,0.071,1.378,0.071,2.065,0c5.429-0.123,10.679-1.985,14.977-5.312
		C77.44,76.877,70.92,81.783,63.506,81.792z"/>
	<path fill="#1C3ED3" d="M66.842,65.098c0,1.845-1.493,3.339-3.336,3.339c-1.84,0-3.333-1.494-3.333-3.339
		c0-1.843,1.493-3.338,3.333-3.338C65.349,61.76,66.842,63.256,66.842,65.098z"/>
</g>
</svg>
